
<svg width="274" height="108" viewBox="0 0 274 108" fill="none" xmlns="http://www.w3.org/2000/svg">
<g opacity="0.6" clip-path="url(#clip0_12543_94113)">
<path opacity="0.85" d="M14.739 -32H15.4957L9.3606 -28.4302V53.6817L18.0653 58.6886V59.1263L9.07895 53.9565L8.98733 53.9022V-28.6474L14.739 -32Z" fill="#FF6B6B"/>
<path opacity="0.97" d="M9.70832 64.3029L0.688843 59.0467V48.5375L9.70832 43.2812L18.7312 48.5375V59.0467L9.70832 64.3029ZM1.0655 58.8261L9.70832 63.8618L18.3545 58.8261V48.7581L9.70832 43.7224L1.0655 48.7581V58.8261Z" fill="#00B097"/>
<path d="M9.70833 -28.7559L0 -23.0992V-22.6614L9.70833 -28.3181L44.8531 -7.84614V33.1012L9.70833 53.5698L0.817014 48.4775V48.9187L9.61331 53.9566L9.70833 54.0109L45.1347 33.3727L45.2297 33.3184V-8.06671L9.70833 -28.7559Z" fill="#FF9C9C"/>
<path opacity="0.99" d="M80.3711 95.1755L44.8497 74.483V33.1013L80.3711 12.4121L115.892 33.1013V74.483L80.3711 95.1755ZM45.2297 74.2624L80.3745 94.7378L115.516 74.2624V33.3218L80.3745 12.8498L45.2297 33.3218V74.2624Z" fill="#00B097"/>
<path opacity="0.94" d="M80.3711 95.1755L44.8497 74.483V33.1013L80.3711 12.4121L115.892 33.1013V74.483L80.3711 95.1755ZM45.2297 74.2624L80.3745 94.7378L115.516 74.2624V33.3218L80.3745 12.8498L45.2297 33.3218V74.2624Z" fill="#D3BDF2"/>
<path opacity="0.77" d="M80.3711 54.0109L80.2795 53.9566L44.8497 33.3218V-8.06331L80.3711 -28.7559L115.892 -8.06671V33.3184L115.801 33.3727L80.3711 54.0075V54.0109ZM45.2297 33.1012L80.3745 53.5732L115.516 33.1012V-7.84275L80.3711 -28.3181L45.2263 -7.84614V33.0978L45.2297 33.1012Z" fill="#00B097"/>
<path opacity="0.95" d="M186.182 -32V-8.06682L151.037 12.4086L115.892 -8.06682V-32H115.519V-7.84625L151.037 12.8463L186.555 -7.84625V-32H186.182Z" fill="#00B097"/>
<path opacity="0.53" d="M151.037 64.3029L142.014 59.0467V48.5375L151.037 43.2812L160.057 48.5375V59.0467L151.037 64.3029ZM142.394 58.8261L151.037 63.8618L159.683 58.8261V48.7581L151.037 43.7224L142.394 48.7581V58.8261Z" fill="#00B097"/>
<path opacity="0.52" d="M80.3711 54.0109L80.2795 53.9566L44.8497 33.3218V-8.06331L80.3711 -28.7559L115.892 -8.06671V33.3184L115.801 33.3727L80.3711 54.0075V54.0109ZM45.2297 33.1012L80.3745 53.5732L115.516 33.1012V-7.84275L80.3711 -28.3181L45.2263 -7.84614V33.0978L45.2297 33.1012Z" fill="#00B097"/>
<path d="M221.7 64.3029L212.677 59.0467V48.5375L221.7 43.2812L230.723 48.5375V59.0467L221.7 64.3029ZM213.057 58.8261L221.703 63.8618L230.346 58.8261V48.7581L221.703 43.7224L213.057 48.7581V58.8261Z" fill="#FF9C9C"/>
<path opacity="0.64" d="M151.037 177.505L150.942 177.45L80.1844 136.231V53.6852L80.2795 53.6309L151.037 12.4121L151.129 12.4664L221.887 53.6852V136.231L221.795 136.289L151.037 177.505ZM80.5611 136.011L151.037 177.063L221.51 136.011V53.9024L151.037 12.8498L80.5611 53.9024V136.011Z" fill="#00B097"/>
<path d="M151.037 54.0114L150.942 53.9572L115.516 33.3223V-8.0628L151.034 -28.752L186.549 -8.0628V33.3223L186.457 33.3766L151.03 54.0114H151.037ZM115.893 33.1017L151.041 53.5737L186.185 33.1017V-7.84223L151.041 -28.3142L115.893 -7.84223V33.1017Z" fill="#BDD42F"/>
<path d="M221.7 74.5911L203.848 64.1905V43.3928L221.7 32.9922L239.552 43.3928V64.1905L221.7 74.5911ZM204.221 63.9699L221.703 74.1533L239.179 63.9699V43.6065L221.703 33.4299L204.221 43.6065V63.9699Z" fill="#C0ACDC"/>
<path opacity="0.58" d="M327.508 -32V-8.06682L292.363 12.4086L257.221 -8.06682V-32H256.845V-7.84625L292.363 12.8463L327.793 -7.78857L327.884 -7.84625V-32H327.508Z" fill="#00B097"/>
<path opacity="0.99" d="M221.7 54.0114L221.605 53.9571L186.182 33.3223V-8.0628L221.703 -28.752L257.221 -8.0628V33.3223L257.126 33.3766L221.703 54.0114H221.7ZM186.559 33.1017L221.703 53.5737L256.845 33.1017V-7.84223L221.703 -28.3142L186.559 -7.84223V33.1017Z" fill="#FF782B"/>
<path opacity="0.97" d="M327.508 -32V-8.06682L292.363 12.4086L257.221 -8.06682V-32H256.845V-7.84625L292.363 12.8463L327.793 -7.78857L327.884 -7.84625V-32H327.508Z" fill="#00B097"/>
<path opacity="0.96" d="M151.037 95.1755L115.519 74.483V33.1013L151.037 12.4121L186.552 33.1013V74.483L151.037 95.1755ZM115.892 74.2624L151.041 94.7378L186.185 74.2624V33.3218L151.041 12.8498L115.892 33.3218V74.2624Z" fill="#00B097"/>
<path d="M151.037 95.1755L115.519 74.483V33.1013L151.037 12.4121L186.552 33.1013V74.483L151.037 95.1755ZM115.892 74.2624L151.041 94.7378L186.185 74.2624V33.3218L151.041 12.8498L115.892 33.3218V74.2624Z" fill="#FF9C9C"/>
<path opacity="0.65" d="M256.845 -32V-8.06682L221.7 12.4086L186.559 -8.06682V-32H186.182V-7.84625L221.7 12.8463L257.221 -7.84625V-32H256.845Z" fill="#3774B1"/>
<path opacity="0.95" d="M292.363 177.505L292.268 177.45L221.51 136.231V53.6852L221.605 53.6309L292.363 12.4121L292.458 12.4664L363.216 53.6852V136.231L363.121 136.289L292.363 177.505ZM221.887 136.011L292.363 177.063L362.839 136.011V53.9024L292.363 12.8498L221.887 53.9024V136.011Z" fill="#00B097"/>
<path opacity="0.51" d="M327.508 -32V-8.06682L292.363 12.4086L257.221 -8.06682V-32H256.845V-7.84625L292.363 12.8463L327.793 -7.78857L327.884 -7.84625V-32H327.508Z" fill="#00B097"/>
<path opacity="0.62" d="M292.363 95.1755L256.841 74.483V33.1013L292.363 12.4121L292.458 12.4664L327.884 33.1047V74.4864L327.793 74.544L292.366 95.1789L292.363 95.1755ZM257.221 74.2624L292.366 94.7378L327.511 74.2624V33.3218L292.366 12.8498L257.221 33.3218V74.2624Z" fill="#3774B1"/>
<path opacity="0.54" d="M292.363 177.505L292.268 177.451L256.845 156.813V115.427L292.366 94.7383L292.461 94.7926L327.888 115.427V156.813L327.796 156.867L292.37 177.505H292.363ZM257.221 156.592L292.366 177.064L327.511 156.592V115.645L292.366 95.1726L257.221 115.645V156.592Z" fill="#00B097"/>
<path opacity="0.69" d="M11.9616 53.6163C11.9616 54.8718 10.9538 55.8898 9.70844 55.8898C8.46308 55.8898 7.45526 54.8718 7.45526 53.6163C7.45526 52.3607 8.46308 51.3359 9.70844 51.3359C10.9538 51.3359 11.9616 52.3607 11.9616 53.6163Z" fill="#F79C9C"/>
<path opacity="0.97" d="M47.2963 33.2125C47.2963 34.468 46.2851 35.486 45.0431 35.486C43.8011 35.486 42.7865 34.468 42.7865 33.2125C42.7865 31.9569 43.7977 30.9355 45.0431 30.9355C46.2885 30.9355 47.2963 31.9535 47.2963 33.2125Z" fill="#00B097"/>
<path opacity="0.86" d="M82.6277 53.7911C82.6277 55.05 81.6164 56.0646 80.3711 56.0646C79.1257 56.0646 78.1179 55.05 78.1179 53.7911C78.1179 52.5322 79.1291 51.5176 80.3711 51.5176C81.6131 51.5176 82.6277 52.5356 82.6277 53.7911Z" fill="#00B097"/>
<path opacity="0.69" d="M153.29 64.0831C153.29 65.3386 152.279 66.3566 151.037 66.3566C149.795 66.3566 148.781 65.3386 148.781 64.0831C148.781 62.8275 149.792 61.8027 151.037 61.8027C152.283 61.8027 153.29 62.8275 153.29 64.0831Z" fill="#00B097"/>
<path opacity="0.62" d="M82.6277 53.7911C82.6277 55.05 81.6164 56.0646 80.3711 56.0646C79.1257 56.0646 78.1179 55.05 78.1179 53.7911C78.1179 52.5322 79.1291 51.5176 80.3711 51.5176C81.6131 51.5176 82.6277 52.5356 82.6277 53.7911Z" fill="#00B097"/>
<path d="M117.959 33.2125C117.959 34.468 116.948 35.486 115.706 35.486C114.464 35.486 113.449 34.468 113.449 33.2125C113.449 31.9569 114.461 30.9355 115.706 30.9355C116.951 30.9355 117.959 31.9535 117.959 33.2125Z" fill="#BDD42F"/>
<path opacity="0.66" d="M224.287 53.6095C224.287 54.865 223.275 55.883 222.03 55.883C220.785 55.883 219.777 54.865 219.777 53.6095C219.777 52.3539 220.788 51.3359 222.03 51.3359C223.272 51.3359 224.287 52.3539 224.287 53.6095Z" fill="#FFAD81"/>
<path opacity="0.64" d="M82.6277 53.7911C82.6277 55.05 81.6164 56.0646 80.3711 56.0646C79.1257 56.0646 78.1179 55.05 78.1179 53.7911C78.1179 52.5322 79.1291 51.5176 80.3711 51.5176C81.6131 51.5176 82.6277 52.5356 82.6277 53.7911Z" fill="#00B097"/>
<path opacity="0.52" d="M153.29 53.7911C153.29 55.05 152.279 56.0646 151.037 56.0646C149.795 56.0646 148.781 55.05 148.781 53.7911C148.781 52.5322 149.792 51.5176 151.037 51.5176C152.283 51.5176 153.29 52.5356 153.29 53.7911Z" fill="#00B097"/>
<path opacity="0.76" d="M188.625 33.2125C188.625 34.468 187.614 35.486 186.369 35.486C185.123 35.486 184.115 34.468 184.115 33.2125C184.115 31.9569 185.123 30.9355 186.369 30.9355C187.614 30.9355 188.625 31.9535 188.625 33.2125Z" fill="#00B097"/>
<path opacity="0.7" d="M241.622 43.502C241.622 44.7576 240.611 45.7756 239.369 45.7756C238.127 45.7756 237.113 44.7576 237.113 43.502C237.113 42.2465 238.124 41.2285 239.369 41.2285C240.614 41.2285 241.622 42.2431 241.622 43.502Z" fill="#D3BDF2"/>
<path d="M188.625 33.2125C188.625 34.468 187.614 35.486 186.369 35.486C185.123 35.486 184.115 34.468 184.115 33.2125C184.115 31.9569 185.123 30.9355 186.369 30.9355C187.614 30.9355 188.625 31.9535 188.625 33.2125Z" fill="#FFAD81"/>
<path opacity="0.77" d="M223.953 12.6285C223.953 13.884 222.942 14.902 221.7 14.902C220.458 14.902 219.443 13.884 219.443 12.6285C219.443 11.373 220.455 10.3516 221.7 10.3516C222.945 10.3516 223.953 11.3696 223.953 12.6285Z" fill="#3774B1"/>
</g>
<defs>
<clipPath id="clip0_12543_94113">
<rect width="1018" height="509" fill="white" transform="translate(0 -32)"/>
</clipPath>
</defs>
</svg>
